# xmcd
#
# Track frame offsets:
# 183
# 19545
# 32968
# 49790
# 76345
# 87420
# 104598
# 115480
# 128258
# 146133
# 164645
# 183613
#
# Disc length: 2705 seconds
#
#
# Revision: 0
# Processed by: cddbd v1.5.2PL0 Copyright (c) Steve Scherf et al.
# Submitted via: Nero 7, 11, 10, 0 
#
DISCID=a40a8f0c
DTITLE=Freddie and The Screamers - Red, White and Blues
DYEAR=1988
DGENRE=Blues
TTITLE0=Red, White and Blues
TTITLE1=Saturday Night
TTITLE2=I Was Raised On The Blues
TTITLE3=I Believe In Your Love
TTITLE4=Big Black Cadillac
TTITLE5=You Put A Spell On Me
TTITLE6=Da Bluze
TTITLE7=Fatback
TTITLE8=The Dark Side
TTITLE9=It Ain't Easy
TTITLE10=Keep On Tryin'
TTITLE11=You're Gonna Burn
EXTD=
EXTT0=Red, White and Blues
EXTT1=Saturday Night
EXTT2=I Was Raised On The Blues
EXTT3=I Believe In Your Love
EXTT4=Big Black Cadillac
EXTT5=You Put A Spell On Me
EXTT6=Da Bluze
EXTT7=Fatback
EXTT8=The Dark Side
EXTT9=It Ain't Easy
EXTT10=Keep On Tryin'
EXTT11=You're Gonna Burn
PLAYORDER=
